<mxfile host="Electron" modified="2024-01-13T03:00:08.598Z" agent="Mozilla/5.0 (Windows NT 10.0; Win64; x64) AppleWebKit/537.36 (KHTML, like Gecko) draw.io/22.0.2 Chrome/114.0.5735.289 Electron/25.8.4 Safari/537.36" etag="G8b7Fj_VkYWgSGHR2Qg4" version="22.0.2" type="device">
  <diagram name="Page-1" id="WrQMkWpy7A_B59Ibx_2I">
    <mxGraphModel dx="1036" dy="606" grid="1" gridSize="10" guides="1" tooltips="1" connect="1" arrows="1" fold="1" page="1" pageScale="1" pageWidth="850" pageHeight="1100" math="0" shadow="0">
      <root>
        <mxCell id="0" />
        <mxCell id="1" parent="0" />
        <mxCell id="U-a35YHABNnuxyFnNgJl-1" value="" style="rounded=0;whiteSpace=wrap;html=1;" vertex="1" parent="1">
          <mxGeometry x="270" y="20" width="440" height="1110" as="geometry" />
        </mxCell>
        <mxCell id="U-a35YHABNnuxyFnNgJl-13" style="rounded=0;orthogonalLoop=1;jettySize=auto;html=1;exitX=1;exitY=0.3333333333333333;exitDx=0;exitDy=0;exitPerimeter=0;endArrow=none;endFill=0;" edge="1" parent="1" source="U-a35YHABNnuxyFnNgJl-3" target="U-a35YHABNnuxyFnNgJl-5">
          <mxGeometry relative="1" as="geometry" />
        </mxCell>
        <mxCell id="U-a35YHABNnuxyFnNgJl-14" style="rounded=0;orthogonalLoop=1;jettySize=auto;html=1;exitX=1;exitY=0.3333333333333333;exitDx=0;exitDy=0;exitPerimeter=0;entryX=0;entryY=0.5;entryDx=0;entryDy=0;startArrow=none;startFill=0;endArrow=none;endFill=0;" edge="1" parent="1" source="U-a35YHABNnuxyFnNgJl-3" target="U-a35YHABNnuxyFnNgJl-6">
          <mxGeometry relative="1" as="geometry" />
        </mxCell>
        <mxCell id="U-a35YHABNnuxyFnNgJl-15" style="rounded=0;orthogonalLoop=1;jettySize=auto;html=1;exitX=1;exitY=0.3333333333333333;exitDx=0;exitDy=0;exitPerimeter=0;entryX=0;entryY=0.5;entryDx=0;entryDy=0;endArrow=none;endFill=0;" edge="1" parent="1" source="U-a35YHABNnuxyFnNgJl-3" target="U-a35YHABNnuxyFnNgJl-7">
          <mxGeometry relative="1" as="geometry" />
        </mxCell>
        <mxCell id="U-a35YHABNnuxyFnNgJl-16" style="rounded=0;orthogonalLoop=1;jettySize=auto;html=1;exitX=1;exitY=0.3333333333333333;exitDx=0;exitDy=0;exitPerimeter=0;entryX=0;entryY=0.5;entryDx=0;entryDy=0;endArrow=none;endFill=0;" edge="1" parent="1" source="U-a35YHABNnuxyFnNgJl-3" target="U-a35YHABNnuxyFnNgJl-8">
          <mxGeometry relative="1" as="geometry" />
        </mxCell>
        <mxCell id="U-a35YHABNnuxyFnNgJl-17" style="rounded=0;orthogonalLoop=1;jettySize=auto;html=1;exitX=1;exitY=0.3333333333333333;exitDx=0;exitDy=0;exitPerimeter=0;entryX=0;entryY=0.5;entryDx=0;entryDy=0;endArrow=none;endFill=0;" edge="1" parent="1" source="U-a35YHABNnuxyFnNgJl-3" target="U-a35YHABNnuxyFnNgJl-9">
          <mxGeometry relative="1" as="geometry" />
        </mxCell>
        <mxCell id="U-a35YHABNnuxyFnNgJl-18" style="rounded=0;orthogonalLoop=1;jettySize=auto;html=1;exitX=1;exitY=0.3333333333333333;exitDx=0;exitDy=0;exitPerimeter=0;entryX=0;entryY=0.5;entryDx=0;entryDy=0;startArrow=none;startFill=0;endArrow=none;endFill=0;" edge="1" parent="1" source="U-a35YHABNnuxyFnNgJl-3" target="U-a35YHABNnuxyFnNgJl-10">
          <mxGeometry relative="1" as="geometry" />
        </mxCell>
        <mxCell id="U-a35YHABNnuxyFnNgJl-3" value="Manager" style="shape=umlActor;verticalLabelPosition=bottom;verticalAlign=top;html=1;outlineConnect=0;" vertex="1" parent="1">
          <mxGeometry x="100" y="160" width="30" height="60" as="geometry" />
        </mxCell>
        <mxCell id="U-a35YHABNnuxyFnNgJl-19" style="rounded=0;orthogonalLoop=1;jettySize=auto;html=1;exitX=1;exitY=0.3333333333333333;exitDx=0;exitDy=0;exitPerimeter=0;entryX=0;entryY=0.5;entryDx=0;entryDy=0;endArrow=none;endFill=0;" edge="1" parent="1" source="U-a35YHABNnuxyFnNgJl-4" target="U-a35YHABNnuxyFnNgJl-11">
          <mxGeometry relative="1" as="geometry" />
        </mxCell>
        <mxCell id="U-a35YHABNnuxyFnNgJl-4" value="Customer" style="shape=umlActor;verticalLabelPosition=bottom;verticalAlign=top;html=1;outlineConnect=0;" vertex="1" parent="1">
          <mxGeometry x="130" y="900" width="30" height="60" as="geometry" />
        </mxCell>
        <mxCell id="U-a35YHABNnuxyFnNgJl-5" value="Add Product" style="ellipse;whiteSpace=wrap;html=1;" vertex="1" parent="1">
          <mxGeometry x="430" y="80" width="120" height="80" as="geometry" />
        </mxCell>
        <mxCell id="U-a35YHABNnuxyFnNgJl-6" value="Print List Product" style="ellipse;whiteSpace=wrap;html=1;" vertex="1" parent="1">
          <mxGeometry x="430" y="200" width="120" height="80" as="geometry" />
        </mxCell>
        <mxCell id="U-a35YHABNnuxyFnNgJl-7" value="Remove Product" style="ellipse;whiteSpace=wrap;html=1;" vertex="1" parent="1">
          <mxGeometry x="430" y="330" width="120" height="80" as="geometry" />
        </mxCell>
        <mxCell id="U-a35YHABNnuxyFnNgJl-8" value="Save to Text File" style="ellipse;whiteSpace=wrap;html=1;" vertex="1" parent="1">
          <mxGeometry x="430" y="450" width="120" height="80" as="geometry" />
        </mxCell>
        <mxCell id="U-a35YHABNnuxyFnNgJl-9" value="Load From Text product" style="ellipse;whiteSpace=wrap;html=1;" vertex="1" parent="1">
          <mxGeometry x="430" y="570" width="120" height="80" as="geometry" />
        </mxCell>
        <mxCell id="U-a35YHABNnuxyFnNgJl-10" value="Launch GUI" style="ellipse;whiteSpace=wrap;html=1;" vertex="1" parent="1">
          <mxGeometry x="425" y="730" width="120" height="80" as="geometry" />
        </mxCell>
        <mxCell id="U-a35YHABNnuxyFnNgJl-11" value="Buy Product from GUI" style="ellipse;whiteSpace=wrap;html=1;" vertex="1" parent="1">
          <mxGeometry x="420" y="890" width="120" height="80" as="geometry" />
        </mxCell>
        <mxCell id="U-a35YHABNnuxyFnNgJl-20" style="rounded=0;orthogonalLoop=1;jettySize=auto;html=1;exitX=0;exitY=0.3333333333333333;exitDx=0;exitDy=0;exitPerimeter=0;entryX=1;entryY=0.5;entryDx=0;entryDy=0;endArrow=none;endFill=0;" edge="1" parent="1" source="U-a35YHABNnuxyFnNgJl-12" target="U-a35YHABNnuxyFnNgJl-5">
          <mxGeometry relative="1" as="geometry" />
        </mxCell>
        <mxCell id="U-a35YHABNnuxyFnNgJl-21" style="rounded=0;orthogonalLoop=1;jettySize=auto;html=1;exitX=0;exitY=0.3333333333333333;exitDx=0;exitDy=0;exitPerimeter=0;entryX=1;entryY=0.5;entryDx=0;entryDy=0;endArrow=none;endFill=0;" edge="1" parent="1" source="U-a35YHABNnuxyFnNgJl-12" target="U-a35YHABNnuxyFnNgJl-6">
          <mxGeometry relative="1" as="geometry" />
        </mxCell>
        <mxCell id="U-a35YHABNnuxyFnNgJl-22" style="rounded=0;orthogonalLoop=1;jettySize=auto;html=1;exitX=0;exitY=0.3333333333333333;exitDx=0;exitDy=0;exitPerimeter=0;entryX=1;entryY=0.5;entryDx=0;entryDy=0;endArrow=none;endFill=0;" edge="1" parent="1" source="U-a35YHABNnuxyFnNgJl-12" target="U-a35YHABNnuxyFnNgJl-7">
          <mxGeometry relative="1" as="geometry" />
        </mxCell>
        <mxCell id="U-a35YHABNnuxyFnNgJl-23" style="rounded=0;orthogonalLoop=1;jettySize=auto;html=1;exitX=0;exitY=0.3333333333333333;exitDx=0;exitDy=0;exitPerimeter=0;entryX=1;entryY=0.5;entryDx=0;entryDy=0;endArrow=none;endFill=0;" edge="1" parent="1" source="U-a35YHABNnuxyFnNgJl-12" target="U-a35YHABNnuxyFnNgJl-8">
          <mxGeometry relative="1" as="geometry" />
        </mxCell>
        <mxCell id="U-a35YHABNnuxyFnNgJl-24" style="rounded=0;orthogonalLoop=1;jettySize=auto;html=1;exitX=0;exitY=0.3333333333333333;exitDx=0;exitDy=0;exitPerimeter=0;entryX=1;entryY=0.5;entryDx=0;entryDy=0;endArrow=none;endFill=0;" edge="1" parent="1" source="U-a35YHABNnuxyFnNgJl-12" target="U-a35YHABNnuxyFnNgJl-9">
          <mxGeometry relative="1" as="geometry" />
        </mxCell>
        <mxCell id="U-a35YHABNnuxyFnNgJl-25" style="rounded=0;orthogonalLoop=1;jettySize=auto;html=1;exitX=0;exitY=0.3333333333333333;exitDx=0;exitDy=0;exitPerimeter=0;entryX=1;entryY=0.5;entryDx=0;entryDy=0;endArrow=none;endFill=0;" edge="1" parent="1" source="U-a35YHABNnuxyFnNgJl-12" target="U-a35YHABNnuxyFnNgJl-10">
          <mxGeometry relative="1" as="geometry" />
        </mxCell>
        <mxCell id="U-a35YHABNnuxyFnNgJl-26" style="rounded=0;orthogonalLoop=1;jettySize=auto;html=1;exitX=0;exitY=0.3333333333333333;exitDx=0;exitDy=0;exitPerimeter=0;entryX=1;entryY=0.5;entryDx=0;entryDy=0;endArrow=none;endFill=0;" edge="1" parent="1" source="U-a35YHABNnuxyFnNgJl-12" target="U-a35YHABNnuxyFnNgJl-11">
          <mxGeometry relative="1" as="geometry" />
        </mxCell>
        <mxCell id="U-a35YHABNnuxyFnNgJl-12" value="System" style="shape=umlActor;verticalLabelPosition=bottom;verticalAlign=top;html=1;outlineConnect=0;" vertex="1" parent="1">
          <mxGeometry x="850" y="430" width="30" height="60" as="geometry" />
        </mxCell>
        <mxCell id="U-a35YHABNnuxyFnNgJl-27" value="Westminster Shopping Manger System" style="text;html=1;strokeColor=none;fillColor=none;align=center;verticalAlign=middle;whiteSpace=wrap;rounded=0;" vertex="1" parent="1">
          <mxGeometry x="400" y="30" width="180" height="30" as="geometry" />
        </mxCell>
      </root>
    </mxGraphModel>
  </diagram>
</mxfile>
